<?xml version="1.0" encoding="utf-8"?>

<svg version="1.1" id="slider_handle"
	 xmlns="http://www.w3.org/2000/svg" xmlns:xlink="http://www.w3.org/1999/xlink" x="0px" y="0px" viewBox="0 0 70.7 70.7"
	 enable-background="new 0 0 70.7 70.7" xml:space="preserve">
		<g>
			<g>
				<path fill="#08BFDD" d="M35.4,70.7C15.9,70.7,0,54.9,0,35.4C0,15.9,15.9,0,35.4,0c19.5,0,35.4,15.9,35.4,35.4
					C70.7,54.9,54.9,70.7,35.4,70.7z M35.4,3C17.5,3,3,17.5,3,35.4c0,17.8,14.5,32.4,32.4,32.4c17.8,0,32.4-14.5,32.4-32.4
					C67.7,17.5,53.2,3,35.4,3z"/>
			</g>
			<g>
				<g>
					<path fill="#08BFDD" d="M61.8,36.4L51,47.2c-0.3,0.3-0.7,0.5-1.1,0.5c-0.8,0-1.5-0.7-1.5-1.5V24.6c0-0.8,0.7-1.5,1.5-1.5
						c0.4,0,0.8,0.2,1.1,0.5l10.8,10.8c0.3,0.3,0.5,0.7,0.5,1.1C62.2,35.8,62,36.2,61.8,36.4z"/>
				</g>
			</g>
			<g>
				<g>
					<path fill="#08BFDD" d="M12.3,35.4c0-0.4,0.2-0.8,0.5-1.1l10.8-10.8c0.3-0.3,0.7-0.5,1.1-0.5c0.8,0,1.5,0.7,1.5,1.5v21.6
						c0,0.8-0.7,1.5-1.5,1.5c-0.4,0-0.8-0.2-1.1-0.5L12.8,36.4C12.5,36.2,12.3,35.8,12.3,35.4z"/>
				</g>
			</g>
		</g>
</svg>
